M48
INCH,TZ
T1C0.020
T2C0.024
T3C0.030
T4C0.032
T5C0.040
T6C0.087
T7C0.120
%
G90
G05
T1
X30550Y-28163
X31449Y-29083
X39088Y-28814
X39630Y-31057
X49111Y-42072
X49402Y-31120
X64487Y-49557
X64575Y-47007
X64973Y-41500
X65110Y-37509
X65389Y-33140
X65818Y-38990
X66353Y-31474
X67588Y-30332
X67838Y-31157
X67909Y-24625
X68554Y-20388
X68873Y-27287
X69004Y-29635
X72585Y-16778
X72950Y-31203
X73060Y-31948
X73252Y-28924
X74302Y-26524
X74506Y-42343
X74693Y-47737
X74701Y-27340
X74861Y-42618
X75628Y-42003
X75721Y-17171
X76899Y-17336
X76924Y-39454
X78500Y-48643
X78910Y-46042
X78939Y-29699
X79865Y-45092
X80298Y-46538
X80686Y-31643
X80900Y-29242
X81367Y-13467
X83322Y-47087
X85155Y-47666
X86672Y-41861
X87121Y-38461
X87508Y-30473
X88233Y-38442
X88448Y-42228
X90370Y-38875
T2
X69000Y-21000
X69000Y-24000
T3
X53750Y-22500
X53750Y-24500
T4
X21750Y-32500
X21750Y-33500
X21750Y-34500
X21750Y-35500
X21750Y-36500
X21750Y-37500
X21750Y-38500
X21750Y-39500
X21750Y-40500
X21750Y-41500
X22750Y-16750
X22750Y-20250
X22750Y-23750
X22750Y-27250
X23500Y-32500
X23500Y-33500
X23500Y-34500
X23500Y-35500
X23500Y-36500
X23500Y-37500
X23500Y-38500
X23500Y-39500
X23500Y-40500
X23500Y-41500
X23750Y-16750
X23750Y-20250
X23750Y-23750
X23750Y-27250
X24000Y-30500
X24500Y-45750
X24500Y-48750
X25500Y-45750
X25500Y-48750
X25750Y-43500
X26000Y-30500
X26250Y-16750
X26250Y-20250
X26250Y-23750
X26250Y-27250
X26500Y-32500
X26500Y-33500
X26500Y-34500
X26500Y-35500
X26500Y-36500
X26500Y-37500
X26500Y-38500
X26500Y-39500
X26500Y-40500
X26500Y-41500
X26500Y-45750
X26500Y-48750
X27250Y-16750
X27250Y-20250
X27250Y-23750
X27250Y-27250
X27500Y-45750
X27500Y-48750
X27750Y-43500
X28500Y-45750
X28500Y-48750
X28750Y-32500
X28750Y-33500
X28750Y-34500
X28750Y-35500
X28750Y-36500
X28750Y-37500
X28750Y-38500
X28750Y-39500
X28750Y-40500
X28750Y-41500
X29250Y-43500
X29500Y-45750
X29500Y-48750
X29750Y-16750
X29750Y-20250
X29750Y-23750
X29750Y-27250
X30500Y-32500
X30500Y-33500
X30500Y-34500
X30500Y-35500
X30500Y-36500
X30500Y-37500
X30500Y-38500
X30500Y-39500
X30500Y-40500
X30500Y-41500
X30500Y-45750
X30500Y-48750
X30750Y-16750
X30750Y-20250
X30750Y-23750
X30750Y-27250
X31000Y-30500
X31500Y-45750
X31500Y-48750
X32250Y-43500
X32500Y-45750
X32500Y-48750
X33000Y-30500
X33250Y-16750
X33250Y-20250
X33250Y-23750
X33250Y-27250
X33500Y-32500
X33500Y-33500
X33500Y-34500
X33500Y-35500
X33500Y-36500
X33500Y-37500
X33500Y-38500
X33500Y-39500
X33500Y-40500
X33500Y-41500
X34250Y-16750
X34250Y-20250
X34250Y-23750
X34250Y-27250
X35750Y-32500
X35750Y-33500
X35750Y-34500
X35750Y-35500
X35750Y-36500
X35750Y-37500
X35750Y-38500
X35750Y-39500
X35750Y-40500
X35750Y-41500
X36750Y-16750
X36750Y-20250
X36750Y-23750
X36750Y-27250
X37500Y-32500
X37500Y-33500
X37500Y-34500
X37500Y-35500
X37500Y-36500
X37500Y-37500
X37500Y-38500
X37500Y-39500
X37500Y-40500
X37500Y-41500
X37750Y-16750
X37750Y-20250
X37750Y-23750
X37750Y-27250
X38000Y-30500
X40000Y-30500
X40250Y-16750
X40250Y-20250
X40250Y-23750
X40250Y-27250
X40500Y-32500
X40500Y-33500
X40500Y-34500
X40500Y-35500
X40500Y-36500
X40500Y-37500
X40500Y-38500
X40500Y-39500
X40500Y-40500
X40500Y-41500
X41250Y-16750
X41250Y-20250
X41250Y-23750
X41250Y-27250
X42750Y-32500
X42750Y-33500
X42750Y-34500
X42750Y-35500
X42750Y-36500
X42750Y-37500
X42750Y-38500
X42750Y-39500
X42750Y-40500
X42750Y-41500
X43750Y-16750
X43750Y-20250
X43750Y-23750
X43750Y-27250
X44500Y-32500
X44500Y-33500
X44500Y-34500
X44500Y-35500
X44500Y-36500
X44500Y-37500
X44500Y-38500
X44500Y-39500
X44500Y-40500
X44500Y-41500
X44750Y-16750
X44750Y-20250
X44750Y-23750
X44750Y-27250
X45000Y-30500
X47000Y-30500
X47250Y-16750
X47250Y-20250
X47250Y-23750
X47250Y-27250
X47500Y-32500
X47500Y-33500
X47500Y-34500
X47500Y-35500
X47500Y-36500
X47500Y-37500
X47500Y-38500
X47500Y-39500
X47500Y-40500
X47500Y-41500
X48250Y-16750
X48250Y-20250
X48250Y-23750
X48250Y-27250
X50750Y-32500
X50750Y-33500
X50750Y-34500
X50750Y-35500
X50750Y-36500
X50750Y-37500
X50750Y-38500
X50750Y-39500
X50750Y-40500
X50750Y-41500
X51250Y-30500
X52250Y-11750
X52250Y-13000
X52250Y-19000
X52500Y-26500
X53250Y-13000
X53250Y-19000
X53250Y-30500
X53750Y-32500
X53750Y-33500
X53750Y-34500
X53750Y-35500
X53750Y-36500
X53750Y-37500
X53750Y-38500
X53750Y-39500
X53750Y-40500
X53750Y-41500
X54250Y-11750
X54250Y-13000
X54250Y-19000
X54500Y-26500
X55250Y-13000
X55250Y-19000
X56000Y-22500
X56000Y-23500
X56000Y-24500
X56000Y-25500
X56000Y-26500
X56000Y-27500
X56000Y-28500
X56000Y-29500
X56000Y-30500
X56000Y-31500
X56000Y-32500
X56000Y-33500
X56000Y-34500
X56000Y-35500
X56000Y-36500
X56000Y-37500
X56000Y-38500
X56000Y-39500
X56000Y-40500
X56000Y-41500
X56250Y-13000
X56250Y-19000
X57250Y-13000
X57250Y-19000
X58000Y-20500
X58250Y-13000
X58250Y-19000
X59250Y-13000
X59250Y-19000
X60000Y-20500
X60250Y-13000
X60250Y-19000
X61250Y-13000
X61250Y-19000
X62000Y-22500
X62000Y-23500
X62000Y-24500
X62000Y-25500
X62000Y-26500
X62000Y-27500
X62000Y-28500
X62000Y-29500
X62000Y-30500
X62000Y-31500
X62000Y-32500
X62000Y-33500
X62000Y-34500
X62000Y-35500
X62000Y-36500
X62000Y-37500
X62000Y-38500
X62000Y-39500
X62000Y-40500
X62000Y-41500
X62250Y-13000
X62250Y-19000
X62250Y-52250
X62250Y-55250
X63250Y-13000
X63250Y-19000
X63500Y-45000
X63500Y-47000
X63500Y-52250
X63500Y-55250
X64250Y-13000
X64250Y-19000
X64250Y-22500
X64250Y-23500
X64250Y-24500
X64250Y-25500
X64250Y-26500
X64250Y-27500
X64250Y-28500
X64250Y-32500
X64250Y-33500
X64250Y-34500
X64250Y-35500
X64250Y-36500
X64250Y-37500
X64250Y-38500
X64250Y-39500
X64250Y-40500
X64250Y-41500
X64750Y-20500
X64750Y-30500
X65250Y-13000
X65250Y-19000
X65500Y-44000
X65500Y-50000
X65500Y-52250
X65500Y-55250
X66250Y-13000
X66250Y-19000
X66500Y-44000
X66500Y-50000
X66500Y-52250
X66500Y-55250
X66750Y-20500
X66750Y-30500
X67250Y-13000
X67250Y-19000
X67250Y-22500
X67250Y-23500
X67250Y-24500
X67250Y-25500
X67250Y-26500
X67250Y-27500
X67250Y-28500
X67250Y-32500
X67250Y-33500
X67250Y-34500
X67250Y-35500
X67250Y-36500
X67250Y-37500
X67250Y-38500
X67250Y-39500
X67250Y-40500
X67250Y-41500
X67500Y-44000
X67500Y-50000
X67500Y-52250
X67500Y-55250
X68500Y-44000
X68500Y-50000
X68500Y-52250
X68500Y-55250
X69500Y-25750
X69500Y-27750
X69500Y-32500
X69500Y-33500
X69500Y-34500
X69500Y-35500
X69500Y-36500
X69500Y-37500
X69500Y-38500
X69500Y-39500
X69500Y-40500
X69500Y-41500
X69500Y-44000
X69500Y-50000
X70000Y-29250
X70000Y-30500
X70250Y-21000
X70250Y-24000
X70500Y-44000
X70500Y-50000
X70500Y-52250
X70500Y-55250
X71500Y-22500
X71500Y-44000
X71500Y-50000
X71750Y-52250
X71750Y-55250
X72000Y-11750
X72000Y-13000
X72000Y-19000
X72000Y-29250
X72000Y-30500
X72500Y-22500
X72500Y-25750
X72500Y-27750
X72500Y-32500
X72500Y-33500
X72500Y-34500
X72500Y-35500
X72500Y-36500
X72500Y-37500
X72500Y-38500
X72500Y-39500
X72500Y-40500
X72500Y-41500
X72500Y-44000
X72500Y-50000
X73000Y-13000
X73000Y-19000
X73500Y-44000
X73500Y-50000
X73500Y-52750
X73500Y-54750
X74000Y-11750
X74000Y-13000
X74000Y-19000
X74000Y-21750
X74000Y-23750
X74500Y-44000
X74500Y-50000
X74750Y-30500
X74750Y-31500
X74750Y-32500
X74750Y-33500
X74750Y-34500
X74750Y-35500
X74750Y-36500
X74750Y-37500
X74750Y-38500
X74750Y-39500
X74750Y-40500
X74750Y-41500
X75000Y-13000
X75000Y-19000
X75250Y-27250
X75250Y-28500
X75500Y-44000
X75500Y-50000
X75500Y-52250
X75500Y-55250
X76000Y-13000
X76000Y-19000
X76000Y-21250
X76000Y-24250
X76500Y-44000
X76500Y-50000
X76500Y-52250
X76500Y-55250
X77000Y-13000
X77000Y-19000
X77000Y-21250
X77000Y-24250
X77250Y-27250
X77250Y-28500
X77500Y-44000
X77500Y-50000
X77500Y-52250
X77500Y-55250
X77750Y-30500
X77750Y-31500
X77750Y-32500
X77750Y-33500
X77750Y-34500
X77750Y-35500
X77750Y-36500
X77750Y-37500
X77750Y-38500
X77750Y-39500
X77750Y-40500
X77750Y-41500
X78000Y-13000
X78000Y-19000
X78000Y-21250
X78000Y-24250
X78500Y-44000
X78500Y-50000
X78500Y-52250
X78500Y-55250
X79000Y-13000
X79000Y-19000
X79000Y-21250
X79000Y-24250
X79500Y-44000
X79500Y-50000
X79500Y-52250
X79500Y-55250
X80000Y-13000
X80000Y-19000
X80000Y-21250
X80000Y-24250
X80000Y-28500
X80000Y-29500
X80000Y-30500
X80000Y-31500
X80000Y-32500
X80000Y-33500
X80000Y-34500
X80000Y-35500
X80000Y-36500
X80000Y-37500
X80000Y-38500
X80000Y-39500
X80000Y-40500
X80000Y-41500
X80500Y-44000
X80500Y-50000
X80500Y-52250
X80500Y-55250
X81000Y-13000
X81000Y-19000
X81000Y-21250
X81000Y-24250
X81500Y-44000
X81500Y-50000
X81500Y-52250
X81500Y-55250
X82000Y-13000
X82000Y-19000
X82000Y-21250
X82000Y-24250
X82000Y-26500
X82500Y-44000
X82500Y-50000
X82500Y-52250
X82500Y-55250
X83000Y-13000
X83000Y-19000
X83000Y-21250
X83000Y-24250
X83500Y-44000
X83500Y-50000
X83500Y-52250
X83500Y-55250
X84000Y-13000
X84000Y-19000
X84000Y-21250
X84000Y-24250
X84000Y-26500
X84500Y-44000
X84500Y-50000
X84500Y-52250
X84500Y-55250
X85000Y-13000
X85000Y-19000
X85000Y-21250
X85000Y-24250
X86000Y-13000
X86000Y-19000
X86000Y-21250
X86000Y-24250
X86000Y-28500
X86000Y-29500
X86000Y-30500
X86000Y-31500
X86000Y-32500
X86000Y-33500
X86000Y-34500
X86000Y-35500
X86000Y-36500
X86000Y-37500
X86000Y-38500
X86000Y-39500
X86000Y-40500
X86000Y-41500
X86500Y-52250
X86500Y-55250
X87000Y-13000
X87000Y-19000
X87000Y-21250
X87000Y-24250
X87500Y-42000
X87500Y-44000
X87750Y-52250
X87750Y-55250
X89000Y-52250
X89000Y-55250
X90000Y-28750
X90000Y-31750
X92750Y-29750
X92750Y-30750
T5
X23500Y-52000
X23500Y-53000
X27250Y-51500
X27250Y-53500
X59250Y-47750
X59250Y-48750
X59250Y-49750
X59250Y-50750
X59250Y-51750
X69750Y-15000
X69750Y-16000
X69750Y-17000
T6
X90620Y-34375
X90620Y-49625
T7
X20500Y-11250
X20500Y-56250
X93750Y-11250
X93750Y-56250
T0
M30
