G04 (created by PCBNEW (2013-07-07 BZR 4022)-stable) date 07/02/2017 08:59:05*
%MOIN*%
G04 Gerber Fmt 3.4, Leading zero omitted, Abs format*
%FSLAX34Y34*%
G01*
G70*
G90*
G04 APERTURE LIST*
%ADD10C,0.00590551*%
%ADD11R,0.138X0.016*%
%ADD12C,0.157*%
%ADD13R,0.18X0.098*%
%ADD14R,0.06X0.06*%
%ADD15C,0.06*%
%ADD16C,0.055*%
%ADD17R,0.055X0.055*%
%ADD18C,0.066*%
%ADD19C,0.056*%
%ADD20R,0.056X0.056*%
%ADD21R,0.07X0.07*%
%ADD22C,0.07*%
%ADD23C,0.16*%
G04 APERTURE END LIST*
G54D10*
G54D11*
X89440Y-48125D03*
X89440Y-47875D03*
X89440Y-47625D03*
X89440Y-47375D03*
X89440Y-47125D03*
X89440Y-46875D03*
X89440Y-46625D03*
X89440Y-46375D03*
X89440Y-46125D03*
X89440Y-45875D03*
X89440Y-45625D03*
X89440Y-45375D03*
X89440Y-45125D03*
X89440Y-44875D03*
X89440Y-44625D03*
X89440Y-44375D03*
X89440Y-44125D03*
X89440Y-43875D03*
X89440Y-43625D03*
X89440Y-43375D03*
X89440Y-43125D03*
X89440Y-42875D03*
X89440Y-42625D03*
X89440Y-42375D03*
X89440Y-42125D03*
X89440Y-41875D03*
X89440Y-41625D03*
X89440Y-41375D03*
X89440Y-41125D03*
X89440Y-40875D03*
X89440Y-40625D03*
X89440Y-40375D03*
X89440Y-40125D03*
X89440Y-39875D03*
X89440Y-39625D03*
X89440Y-39375D03*
X89440Y-39125D03*
X89440Y-38875D03*
X89440Y-38625D03*
X89440Y-38375D03*
X89440Y-38125D03*
X89440Y-37875D03*
X89440Y-37625D03*
X89440Y-37375D03*
X89440Y-37125D03*
X89440Y-36875D03*
X89440Y-36625D03*
X89440Y-36375D03*
X89440Y-36125D03*
X89440Y-35875D03*
G54D12*
X90620Y-49625D03*
X90620Y-34375D03*
G54D13*
X91670Y-32810D03*
X91670Y-51190D03*
G54D14*
X65500Y-55250D03*
G54D15*
X66500Y-55250D03*
X67500Y-55250D03*
X68500Y-55250D03*
X68500Y-52250D03*
X67500Y-52250D03*
X66500Y-52250D03*
X65500Y-52250D03*
G54D16*
X69500Y-27750D03*
X69500Y-25750D03*
X72500Y-27750D03*
X72500Y-25750D03*
G54D17*
X21750Y-41500D03*
G54D16*
X21750Y-40500D03*
X21750Y-39500D03*
X21750Y-38500D03*
X21750Y-37500D03*
X21750Y-36500D03*
X21750Y-35500D03*
X21750Y-34500D03*
X21750Y-33500D03*
X21750Y-32500D03*
G54D17*
X35750Y-41500D03*
G54D16*
X35750Y-40500D03*
X35750Y-39500D03*
X35750Y-38500D03*
X35750Y-37500D03*
X35750Y-36500D03*
X35750Y-35500D03*
X35750Y-34500D03*
X35750Y-33500D03*
X35750Y-32500D03*
G54D17*
X28750Y-41500D03*
G54D16*
X28750Y-40500D03*
X28750Y-39500D03*
X28750Y-38500D03*
X28750Y-37500D03*
X28750Y-36500D03*
X28750Y-35500D03*
X28750Y-34500D03*
X28750Y-33500D03*
X28750Y-32500D03*
G54D17*
X42750Y-41500D03*
G54D16*
X42750Y-40500D03*
X42750Y-39500D03*
X42750Y-38500D03*
X42750Y-37500D03*
X42750Y-36500D03*
X42750Y-35500D03*
X42750Y-34500D03*
X42750Y-33500D03*
X42750Y-32500D03*
X70500Y-55250D03*
X70500Y-52250D03*
X70250Y-21000D03*
X70250Y-24000D03*
X71750Y-55250D03*
X71750Y-52250D03*
X63500Y-55250D03*
X63500Y-52250D03*
X62250Y-55250D03*
X62250Y-52250D03*
X32250Y-43500D03*
X29250Y-43500D03*
X90000Y-31750D03*
X90000Y-28750D03*
G54D14*
X59250Y-47750D03*
G54D15*
X59250Y-48750D03*
X59250Y-49750D03*
X59250Y-50750D03*
X59250Y-51750D03*
G54D14*
X69750Y-17000D03*
G54D15*
X69750Y-16000D03*
X69750Y-15000D03*
G54D18*
X33250Y-16750D03*
X34250Y-16750D03*
X29750Y-16750D03*
X30750Y-16750D03*
X29750Y-23750D03*
X30750Y-23750D03*
X29750Y-20250D03*
X30750Y-20250D03*
X36750Y-27250D03*
X37750Y-27250D03*
X33250Y-20250D03*
X34250Y-20250D03*
X33250Y-23750D03*
X34250Y-23750D03*
X33250Y-27250D03*
X34250Y-27250D03*
X47250Y-20250D03*
X48250Y-20250D03*
X29750Y-27250D03*
X30750Y-27250D03*
X47250Y-27250D03*
X48250Y-27250D03*
X47250Y-23750D03*
X48250Y-23750D03*
X47250Y-16750D03*
X48250Y-16750D03*
X43750Y-16750D03*
X44750Y-16750D03*
X43750Y-20250D03*
X44750Y-20250D03*
X43750Y-23750D03*
X44750Y-23750D03*
X43750Y-27250D03*
X44750Y-27250D03*
X92750Y-30750D03*
X92750Y-29750D03*
X26250Y-23750D03*
X27250Y-23750D03*
X26250Y-20250D03*
X27250Y-20250D03*
X26250Y-16750D03*
X27250Y-16750D03*
X22750Y-16750D03*
X23750Y-16750D03*
X22750Y-20250D03*
X23750Y-20250D03*
X22750Y-23750D03*
X23750Y-23750D03*
X22750Y-27250D03*
X23750Y-27250D03*
X26250Y-27250D03*
X27250Y-27250D03*
X36750Y-23750D03*
X37750Y-23750D03*
X40250Y-27250D03*
X41250Y-27250D03*
X40250Y-23750D03*
X41250Y-23750D03*
X40250Y-20250D03*
X41250Y-20250D03*
X40250Y-16750D03*
X41250Y-16750D03*
X36750Y-16750D03*
X37750Y-16750D03*
X36750Y-20250D03*
X37750Y-20250D03*
G54D19*
X53750Y-24500D03*
X53750Y-22500D03*
G54D20*
X69000Y-21000D03*
G54D19*
X69000Y-24000D03*
G54D17*
X65500Y-50000D03*
G54D16*
X66500Y-50000D03*
X67500Y-50000D03*
X68500Y-50000D03*
X69500Y-50000D03*
X70500Y-50000D03*
X71500Y-50000D03*
X72500Y-50000D03*
X73500Y-50000D03*
X74500Y-50000D03*
X75500Y-50000D03*
X76500Y-50000D03*
X77500Y-50000D03*
X78500Y-50000D03*
X79500Y-50000D03*
X80500Y-50000D03*
X81500Y-50000D03*
X82500Y-50000D03*
X83500Y-50000D03*
X84500Y-50000D03*
X84500Y-44000D03*
X83500Y-44000D03*
X82500Y-44000D03*
X81500Y-44000D03*
X80500Y-44000D03*
X79500Y-44000D03*
X78500Y-44000D03*
X77500Y-44000D03*
X76500Y-44000D03*
X75500Y-44000D03*
X74500Y-44000D03*
X73500Y-44000D03*
X72500Y-44000D03*
X71500Y-44000D03*
X70500Y-44000D03*
X69500Y-44000D03*
X68500Y-44000D03*
X67500Y-44000D03*
X66500Y-44000D03*
X65500Y-44000D03*
G54D17*
X56000Y-22500D03*
G54D16*
X56000Y-23500D03*
X56000Y-24500D03*
X56000Y-25500D03*
X56000Y-26500D03*
X56000Y-27500D03*
X56000Y-28500D03*
X56000Y-29500D03*
X56000Y-30500D03*
X56000Y-31500D03*
X56000Y-32500D03*
X56000Y-33500D03*
X56000Y-34500D03*
X56000Y-35500D03*
X56000Y-36500D03*
X56000Y-37500D03*
X56000Y-38500D03*
X56000Y-39500D03*
X56000Y-40500D03*
X56000Y-41500D03*
X62000Y-41500D03*
X62000Y-40500D03*
X62000Y-39500D03*
X62000Y-38500D03*
X62000Y-37500D03*
X62000Y-36500D03*
X62000Y-35500D03*
X62000Y-34500D03*
X62000Y-33500D03*
X62000Y-32500D03*
X62000Y-31500D03*
X62000Y-30500D03*
X62000Y-29500D03*
X62000Y-28500D03*
X62000Y-27500D03*
X62000Y-26500D03*
X62000Y-25500D03*
X62000Y-24500D03*
X62000Y-23500D03*
X62000Y-22500D03*
G54D17*
X72000Y-19000D03*
G54D16*
X73000Y-19000D03*
X74000Y-19000D03*
X75000Y-19000D03*
X76000Y-19000D03*
X77000Y-19000D03*
X78000Y-19000D03*
X79000Y-19000D03*
X80000Y-19000D03*
X81000Y-19000D03*
X82000Y-19000D03*
X83000Y-19000D03*
X84000Y-19000D03*
X85000Y-19000D03*
X86000Y-19000D03*
X87000Y-19000D03*
X87000Y-13000D03*
X86000Y-13000D03*
X85000Y-13000D03*
X84000Y-13000D03*
X83000Y-13000D03*
X82000Y-13000D03*
X81000Y-13000D03*
X80000Y-13000D03*
X79000Y-13000D03*
X78000Y-13000D03*
X77000Y-13000D03*
X76000Y-13000D03*
X75000Y-13000D03*
X74000Y-13000D03*
X73000Y-13000D03*
X72000Y-13000D03*
G54D17*
X52250Y-19000D03*
G54D16*
X53250Y-19000D03*
X54250Y-19000D03*
X55250Y-19000D03*
X56250Y-19000D03*
X57250Y-19000D03*
X58250Y-19000D03*
X59250Y-19000D03*
X60250Y-19000D03*
X61250Y-19000D03*
X62250Y-19000D03*
X63250Y-19000D03*
X64250Y-19000D03*
X65250Y-19000D03*
X66250Y-19000D03*
X67250Y-19000D03*
X67250Y-13000D03*
X66250Y-13000D03*
X65250Y-13000D03*
X64250Y-13000D03*
X63250Y-13000D03*
X62250Y-13000D03*
X61250Y-13000D03*
X60250Y-13000D03*
X59250Y-13000D03*
X58250Y-13000D03*
X57250Y-13000D03*
X56250Y-13000D03*
X55250Y-13000D03*
X54250Y-13000D03*
X53250Y-13000D03*
X52250Y-13000D03*
G54D17*
X80000Y-28500D03*
G54D16*
X80000Y-29500D03*
X80000Y-30500D03*
X80000Y-31500D03*
X80000Y-32500D03*
X80000Y-33500D03*
X80000Y-34500D03*
X80000Y-35500D03*
X80000Y-36500D03*
X80000Y-37500D03*
X80000Y-38500D03*
X80000Y-39500D03*
X80000Y-40500D03*
X80000Y-41500D03*
X86000Y-41500D03*
X86000Y-40500D03*
X86000Y-39500D03*
X86000Y-38500D03*
X86000Y-37500D03*
X86000Y-36500D03*
X86000Y-35500D03*
X86000Y-34500D03*
X86000Y-33500D03*
X86000Y-32500D03*
X86000Y-31500D03*
X86000Y-30500D03*
X86000Y-29500D03*
X86000Y-28500D03*
G54D17*
X76000Y-24250D03*
G54D16*
X77000Y-24250D03*
X78000Y-24250D03*
X79000Y-24250D03*
X80000Y-24250D03*
X81000Y-24250D03*
X82000Y-24250D03*
X83000Y-24250D03*
X84000Y-24250D03*
X85000Y-24250D03*
X86000Y-24250D03*
X87000Y-24250D03*
X87000Y-21250D03*
X86000Y-21250D03*
X85000Y-21250D03*
X84000Y-21250D03*
X83000Y-21250D03*
X82000Y-21250D03*
X81000Y-21250D03*
X80000Y-21250D03*
X79000Y-21250D03*
X78000Y-21250D03*
X77000Y-21250D03*
X76000Y-21250D03*
G54D17*
X74750Y-30500D03*
G54D16*
X74750Y-31500D03*
X74750Y-32500D03*
X74750Y-33500D03*
X74750Y-34500D03*
X74750Y-35500D03*
X74750Y-36500D03*
X74750Y-37500D03*
X74750Y-38500D03*
X74750Y-39500D03*
X74750Y-40500D03*
X74750Y-41500D03*
X77750Y-41500D03*
X77750Y-40500D03*
X77750Y-39500D03*
X77750Y-38500D03*
X77750Y-37500D03*
X77750Y-36500D03*
X77750Y-35500D03*
X77750Y-34500D03*
X77750Y-33500D03*
X77750Y-32500D03*
X77750Y-31500D03*
X77750Y-30500D03*
G54D17*
X44500Y-32500D03*
G54D16*
X44500Y-33500D03*
X44500Y-34500D03*
X44500Y-35500D03*
X44500Y-36500D03*
X44500Y-37500D03*
X44500Y-38500D03*
X44500Y-39500D03*
X44500Y-40500D03*
X44500Y-41500D03*
X47500Y-41500D03*
X47500Y-40500D03*
X47500Y-39500D03*
X47500Y-38500D03*
X47500Y-37500D03*
X47500Y-36500D03*
X47500Y-35500D03*
X47500Y-34500D03*
X47500Y-33500D03*
X47500Y-32500D03*
G54D17*
X37500Y-32500D03*
G54D16*
X37500Y-33500D03*
X37500Y-34500D03*
X37500Y-35500D03*
X37500Y-36500D03*
X37500Y-37500D03*
X37500Y-38500D03*
X37500Y-39500D03*
X37500Y-40500D03*
X37500Y-41500D03*
X40500Y-41500D03*
X40500Y-40500D03*
X40500Y-39500D03*
X40500Y-38500D03*
X40500Y-37500D03*
X40500Y-36500D03*
X40500Y-35500D03*
X40500Y-34500D03*
X40500Y-33500D03*
X40500Y-32500D03*
G54D17*
X64250Y-32500D03*
G54D16*
X64250Y-33500D03*
X64250Y-34500D03*
X64250Y-35500D03*
X64250Y-36500D03*
X64250Y-37500D03*
X64250Y-38500D03*
X64250Y-39500D03*
X64250Y-40500D03*
X64250Y-41500D03*
X67250Y-41500D03*
X67250Y-40500D03*
X67250Y-39500D03*
X67250Y-38500D03*
X67250Y-37500D03*
X67250Y-36500D03*
X67250Y-35500D03*
X67250Y-34500D03*
X67250Y-33500D03*
X67250Y-32500D03*
G54D17*
X30500Y-32500D03*
G54D16*
X30500Y-33500D03*
X30500Y-34500D03*
X30500Y-35500D03*
X30500Y-36500D03*
X30500Y-37500D03*
X30500Y-38500D03*
X30500Y-39500D03*
X30500Y-40500D03*
X30500Y-41500D03*
X33500Y-41500D03*
X33500Y-40500D03*
X33500Y-39500D03*
X33500Y-38500D03*
X33500Y-37500D03*
X33500Y-36500D03*
X33500Y-35500D03*
X33500Y-34500D03*
X33500Y-33500D03*
X33500Y-32500D03*
G54D17*
X23500Y-32500D03*
G54D16*
X23500Y-33500D03*
X23500Y-34500D03*
X23500Y-35500D03*
X23500Y-36500D03*
X23500Y-37500D03*
X23500Y-38500D03*
X23500Y-39500D03*
X23500Y-40500D03*
X23500Y-41500D03*
X26500Y-41500D03*
X26500Y-40500D03*
X26500Y-39500D03*
X26500Y-38500D03*
X26500Y-37500D03*
X26500Y-36500D03*
X26500Y-35500D03*
X26500Y-34500D03*
X26500Y-33500D03*
X26500Y-32500D03*
G54D17*
X50750Y-32500D03*
G54D16*
X50750Y-33500D03*
X50750Y-34500D03*
X50750Y-35500D03*
X50750Y-36500D03*
X50750Y-37500D03*
X50750Y-38500D03*
X50750Y-39500D03*
X50750Y-40500D03*
X50750Y-41500D03*
X53750Y-41500D03*
X53750Y-40500D03*
X53750Y-39500D03*
X53750Y-38500D03*
X53750Y-37500D03*
X53750Y-36500D03*
X53750Y-35500D03*
X53750Y-34500D03*
X53750Y-33500D03*
X53750Y-32500D03*
G54D17*
X75500Y-55250D03*
G54D16*
X76500Y-55250D03*
X77500Y-55250D03*
X78500Y-55250D03*
X79500Y-55250D03*
X80500Y-55250D03*
X81500Y-55250D03*
X82500Y-55250D03*
X83500Y-55250D03*
X84500Y-55250D03*
X84500Y-52250D03*
X83500Y-52250D03*
X82500Y-52250D03*
X81500Y-52250D03*
X80500Y-52250D03*
X79500Y-52250D03*
X78500Y-52250D03*
X77500Y-52250D03*
X76500Y-52250D03*
X75500Y-52250D03*
G54D17*
X69500Y-32500D03*
G54D16*
X69500Y-33500D03*
X69500Y-34500D03*
X69500Y-35500D03*
X69500Y-36500D03*
X69500Y-37500D03*
X69500Y-38500D03*
X69500Y-39500D03*
X69500Y-40500D03*
X69500Y-41500D03*
X72500Y-41500D03*
X72500Y-40500D03*
X72500Y-39500D03*
X72500Y-38500D03*
X72500Y-37500D03*
X72500Y-36500D03*
X72500Y-35500D03*
X72500Y-34500D03*
X72500Y-33500D03*
X72500Y-32500D03*
G54D17*
X32500Y-45750D03*
G54D16*
X31500Y-45750D03*
X30500Y-45750D03*
X29500Y-45750D03*
X28500Y-45750D03*
X27500Y-45750D03*
X26500Y-45750D03*
X25500Y-45750D03*
X24500Y-45750D03*
X24500Y-48750D03*
X25500Y-48750D03*
X26500Y-48750D03*
X27500Y-48750D03*
X28500Y-48750D03*
X29500Y-48750D03*
X30500Y-48750D03*
X31500Y-48750D03*
X32500Y-48750D03*
G54D21*
X27250Y-53500D03*
G54D22*
X27250Y-51500D03*
G54D16*
X52250Y-11750D03*
X54250Y-11750D03*
X53250Y-30500D03*
X51250Y-30500D03*
X26000Y-30500D03*
X24000Y-30500D03*
X33000Y-30500D03*
X31000Y-30500D03*
X40000Y-30500D03*
X38000Y-30500D03*
X47000Y-30500D03*
X45000Y-30500D03*
X72000Y-11750D03*
X74000Y-11750D03*
X77250Y-28500D03*
X75250Y-28500D03*
X87500Y-42000D03*
X87500Y-44000D03*
X74000Y-21750D03*
X74000Y-23750D03*
X73500Y-52750D03*
X73500Y-54750D03*
X60000Y-20500D03*
X58000Y-20500D03*
X25750Y-43500D03*
X27750Y-43500D03*
X66750Y-30500D03*
X64750Y-30500D03*
X63500Y-45000D03*
X63500Y-47000D03*
X52500Y-26500D03*
X54500Y-26500D03*
X70000Y-29250D03*
X72000Y-29250D03*
X77250Y-27250D03*
X75250Y-27250D03*
X84000Y-26500D03*
X82000Y-26500D03*
X72000Y-30500D03*
X70000Y-30500D03*
G54D17*
X71500Y-22500D03*
G54D16*
X72500Y-22500D03*
G54D23*
X20500Y-11250D03*
X93750Y-11250D03*
X20500Y-56250D03*
X93750Y-56250D03*
G54D14*
X23500Y-53000D03*
G54D15*
X23500Y-52000D03*
G54D16*
X87750Y-55250D03*
X87750Y-52250D03*
X89000Y-55250D03*
X89000Y-52250D03*
X86500Y-52250D03*
X86500Y-55250D03*
G54D17*
X64250Y-22500D03*
G54D16*
X64250Y-23500D03*
X64250Y-24500D03*
X64250Y-25500D03*
X64250Y-26500D03*
X64250Y-27500D03*
X64250Y-28500D03*
X67250Y-28500D03*
X67250Y-27500D03*
X67250Y-26500D03*
X67250Y-25500D03*
X67250Y-24500D03*
X67250Y-23500D03*
X67250Y-22500D03*
X66750Y-20500D03*
X64750Y-20500D03*
M02*
